<?xml version="1.0" encoding="UTF-8"?>
<svg viewBox="0 0 120 120" xmlns="http://www.w3.org/2000/svg">
 <defs>
  <filter id="d">
   <feGaussianBlur stdDeviation="2.76074"/>
  </filter>
  <filter id="c" x="-.17994" y="-.17925" width="1.3599" height="1.3585">
   <feGaussianBlur stdDeviation="18.47879"/>
  </filter>
  <linearGradient id="b" x1="351.58" x2="690.79" y1="584.52" y2="354.38" gradientTransform="matrix(0 .14602 -.18189 0 132.44 -51.45)" gradientUnits="userSpaceOnUse">
   <stop stop-color="#fff" offset="0"/>
   <stop stop-color="#fff" stop-opacity="0" offset="1"/>
  </linearGradient>
  <linearGradient id="a" x1="41.689" x2="463.22" y1="340.63" y2="-130.79" gradientTransform="matrix(0 .2337 -.24524 0 101.99 -10.967)" gradientUnits="userSpaceOnUse">
   <stop stop-color="#fefdb7" offset="0"/>
   <stop stop-color="#f5f06c" offset="1"/>
  </linearGradient>
 </defs>
 <g transform="translate(0,24)">
  <path d="m102.35-2.4485c-4.9201 30.272-5.1802 61.312 3.697 85.737-29.197-3.2209-58.105-11.17-87.999-1.4359 0.10373 0.28294 5.9012 5.2384-0.32349-0.30827-0.53787-36.382 2.3972-50.858 0-83.993 0-0.17078 0.14427-0.30826 0.32349-0.30826 28.208 1.077 56.508 2.6105 83.979 0 0.17921 0 0.32349 0.13749 0.32349 0.30826z" fill="#a0892c" fill-rule="evenodd" filter="url(#d)"/>
  <path d="m97.54-6.6926c-1.1611 28.222-0.65452 58.844 3.697 85.737-29.947-0.4085-60.228-3.2103-87.999-1.4359 0.10373 0.28294 5.9012 5.2384-0.32349-0.30827-0.53787-36.382 2.3972-50.858 0-83.993 0-0.17078 0.14427-0.30826 0.32349-0.30826 28.208 1.077 56.508 2.6105 83.979 0 0.17921 0 0.32349 0.13749 0.32349 0.30826z" fill="url(#a)" fill-rule="evenodd"/>
  <path d="m100.98-6.9653-40.834-0.15028-48.474-0.71617s-5.1914 129.14 37.87 58.289 47.01-48.248 51.438-57.423z" fill="url(#b)" fill-rule="evenodd" opacity=".27778"/>
  <path transform="matrix(.05553 -.01015 .00957 .05236 28.937 -15.728)" d="m527.82 393.14a123.43 123.43 0 1 1 -246.87 0 123.43 123.43 0 1 1 246.87 0z" fill="#a0892c" filter="url(#c)"/>
  <path transform="matrix(.05553 -.01015 .00957 .05236 30.515 -17.659)" d="m527.82 393.14a123.43 123.43 0 1 1 -246.87 0 123.43 123.43 0 1 1 246.87 0z" fill="#d40000"/>
  <path d="m63.963-2.7634-6.7104 1.2271-1.405 6.3478c0.77969 0.1188 1.5938 0.12061 2.4197-0.03033 3.7228-0.68037 6.237-4.0384 5.6957-7.5446z" fill="#e00"/>
  <path d="m57.311-8.266c-0.46179-0.00462-0.93203 0.0349-1.405 0.12133-3.7834 0.69144-6.3242 4.1481-5.6722 7.7155 0.50965 2.7886 2.8225 4.8153 5.6143 5.2407l1.405-6.3478 6.7104-1.2271c-0.0088-0.05706-0.01162-0.11384-0.02206-0.17097-0.57048-3.1215-3.398-5.2993-6.6305-5.3317z" fill="#f00"/>
  <path d="m54.471-4.7016-0.50372 0.3724-0.92915 0.69483c-0.37931 0.8063-0.32641 1.6618-0.08897 2.5706 0.61601 2.3578 2.3696 3.5104 4.8441 3.2292 1.2666-0.1439 2.427-0.56986 3.1386-1.4749l1.2904-1.6182-7.7513-3.774z" fill="#a00"/>
  <path transform="matrix(.0434 -.00793 .00748 .04092 38.049 -17.175)" d="m527.82 393.14a123.43 123.43 0 1 1 -246.87 0 123.43 123.43 0 1 1 246.87 0z" fill="#d40000"/>
  <path transform="matrix(.0434 -.00793 .00748 .04092 38.433 -17.526)" d="m527.82 393.14a123.43 123.43 0 1 1 -246.87 0 123.43 123.43 0 1 1 246.87 0z" fill="#f00"/>
 </g>
</svg>
